<?xml version="1.0" encoding="UTF-8"?>
<svg width="48px" height="48px" viewBox="0 0 48 48" version="1.1" xmlns="http://www.w3.org/2000/svg" xmlns:xlink="http://www.w3.org/1999/xlink">
    <!-- Generator: Sketch 51.3 (57544) - http://www.bohemiancoding.com/sketch -->
    <title>Artboard</title>
    <desc>Created with Sketch.</desc>
    <defs>
        <path d="M35,0 L5,0 C2.2421875,0 0,2.2421875 0,5 L0,27.5 C0,30.2578125 2.2421875,32.5 5,32.5 L12.5,32.5 L12.5,39.0625 C12.5,39.6171875 12.953125,40 13.4375,40 C13.625,40 13.8203125,39.9453125 13.9921875,39.8125 L23.75,32.5 L35,32.5 C37.7578125,32.5 40,30.2578125 40,27.5 L40,5 C40,2.2421875 37.7578125,0 35,0 Z M37.5,27.5 C37.5,28.875 36.375,30 35,30 L22.9140625,30 L22.25,30.5 L15,35.9375 L15,30 L5,30 C3.625,30 2.5,28.875 2.5,27.5 L2.5,5 C2.5,3.625 3.625,2.5 5,2.5 L35,2.5 C36.375,2.5 37.5,3.625 37.5,5 L37.5,27.5 Z M25.921875,18.5390625 C24.453125,20.265625 22.296875,21.25 20,21.25 C17.703125,21.25 15.546875,20.265625 14.078125,18.546875 C13.6328125,18.0234375 12.84375,17.96875 12.3203125,18.40625 C11.7890625,18.859375 11.734375,19.640625 12.1796875,20.171875 C14.1171875,22.4453125 16.96875,23.75 20,23.75 C23.03125,23.75 25.8828125,22.4453125 27.828125,20.1640625 C28.28125,19.640625 28.2109375,18.8515625 27.6875,18.3984375 C27.1640625,17.953125 26.375,18.015625 25.921875,18.5390625 Z M15,14.375 C16.0390625,14.375 16.875,13.5390625 16.875,12.5 C16.875,11.4609375 16.0390625,10.625 15,10.625 C13.9609375,10.625 13.125,11.4609375 13.125,12.5 C13.125,13.5390625 13.9609375,14.375 15,14.375 Z M25,14.375 C26.0390625,14.375 26.875,13.5390625 26.875,12.5 C26.875,11.4609375 26.0390625,10.625 25,10.625 C23.9609375,10.625 23.125,11.4609375 23.125,12.5 C23.125,13.5390625 23.9609375,14.375 25,14.375 Z" id="path-1"></path>
    </defs>
    <g id="Artboard" stroke="none" stroke-width="1" fill="none" fill-rule="evenodd">
        <g id="comment-alt-smile" transform="translate(4.000000, 4.000000)">
            <mask id="mask-2" fill="white">
                <use xlink:href="#path-1"></use>
            </mask>
            <g id="path-1"></g>
            <g id="grey/900(dark)" mask="url(#mask-2)" fill="#3B3E40" fill-rule="nonzero">
                <rect id="base" x="0" y="0" width="40" height="40"></rect>
            </g>
        </g>
    </g>
</svg>