<?xml version="1.0" encoding="UTF-8"?>
<svg width="48px" height="48px" viewBox="0 0 48 48" version="1.1" xmlns="http://www.w3.org/2000/svg" xmlns:xlink="http://www.w3.org/1999/xlink">
    <!-- Generator: Sketch 51.3 (57544) - http://www.bohemiancoding.com/sketch -->
    <title>Artboard</title>
    <desc>Created with Sketch.</desc>
    <defs>
        <path d="M36.5714287,0.363636364 L3.32467532,0.363636364 C1.48917749,0.363636364 0,1.93425324 0,3.87012987 L0,29.5844156 C0,31.5202922 1.48917749,33.0909091 3.32467532,33.0909091 L36.5714287,33.0909091 C38.4069265,33.0909091 39.8961039,31.5202922 39.8961039,29.5844156 L39.8961039,3.87012987 C39.8961039,1.93425324 38.4069265,0.363636364 36.5714287,0.363636364 Z M3.32467532,2.7012987 L36.5714287,2.7012987 C37.1809524,2.7012987 37.6796537,3.22727273 37.6796537,3.87012987 L37.6796537,7.37662335 L2.21645022,7.37662335 L2.21645022,3.87012987 C2.21645022,3.22727273 2.71515152,2.7012987 3.32467532,2.7012987 Z M36.5714287,30.7532468 L3.32467532,30.7532468 C2.71515152,30.7532468 2.21645022,30.2272727 2.21645022,29.5844156 L2.21645022,14.3896104 L37.6796537,14.3896104 L37.6796537,29.5844156 C37.6796537,30.2272727 37.1809524,30.7532468 36.5714287,30.7532468 Z M13.2987013,24.6168831 L13.2987013,25.2012987 C13.2987013,25.6834416 12.9246753,26.0779221 12.4675324,26.0779221 L7.48051949,26.0779221 C7.02337663,26.0779221 6.64935065,25.6834416 6.64935065,25.2012987 L6.64935065,24.6168831 C6.64935065,24.1347402 7.02337663,23.7402597 7.48051949,23.7402597 L12.4675324,23.7402597 C12.9246753,23.7402597 13.2987013,24.1347402 13.2987013,24.6168831 Z M26.5974027,24.6168831 L26.5974027,25.2012987 C26.5974027,25.6834416 26.2233767,26.0779221 25.7662337,26.0779221 L16.3463204,26.0779221 C15.8891775,26.0779221 15.5151515,25.6834416 15.5151515,25.2012987 L15.5151515,24.6168831 C15.5151515,24.1347402 15.8891775,23.7402597 16.3463204,23.7402597 L25.7662337,23.7402597 C26.2233767,23.7402597 26.5974027,24.1347402 26.5974027,24.6168831 Z" id="path-1"></path>
    </defs>
    <g id="Artboard" stroke="none" stroke-width="1" fill="none" fill-rule="evenodd">
        <g id="credit-card" transform="translate(4.000000, 7.000000)">
            <mask id="mask-2" fill="white">
                <use xlink:href="#path-1"></use>
            </mask>
            <g id="path-1"></g>
            <g id="grey/900(dark)" mask="url(#mask-2)">
                <g transform="translate(0.000000, -3.636364)" id="base">
                    <g transform="translate(0.000000, 0.415585)">
                        <rect id="Rectangle-path" fill="#3B3E40" fill-rule="nonzero" x="0" y="0" width="39.8961039" height="39.8961039"></rect>
                    </g>
                </g>
            </g>
        </g>
    </g>
</svg>