<?xml version="1.0" encoding="UTF-8"?>
<svg width="48px" height="48px" viewBox="0 0 48 48" version="1.1" xmlns="http://www.w3.org/2000/svg" xmlns:xlink="http://www.w3.org/1999/xlink">
    <!-- Generator: Sketch 51.3 (57544) - http://www.bohemiancoding.com/sketch -->
    <title>Artboard</title>
    <desc>Created with Sketch.</desc>
    <defs>
        <path d="M46.5975,13.3880859 L42.21,8.93203125 C41.31,8.01796875 40.0875,7.50761715 38.8125,7.50761715 L34.8,7.50761715 L34.8,2.625 C34.8,1.27675782 33.7275,0.1875 32.4,0.1875 L2.4,0.1875 C1.0725,0.1875 0,1.27675782 0,2.625 L0,28.21875 C0,31.5855468 2.685,34.3125 6,34.3125 C7.9725,34.3125 9.705,33.3298827 10.8,31.8445314 C11.895,33.3375 13.6275,34.3125 15.6,34.3125 C18.915,34.3125 21.6,31.5855468 21.6,28.21875 C21.6,27.7998048 21.555,27.3960936 21.48,27 L33.72,27 C33.6375,27.3960936 33.6,27.7998048 33.6,28.21875 C33.6,31.5855468 36.285,34.3125 39.6,34.3125 C42.915,34.3125 45.6,31.5855468 45.6,28.21875 C45.6,27.7998048 45.555,27.3960936 45.48,27 L46.8,27 C47.46,27 48,26.4515625 48,25.78125 L48,16.8310546 C48,15.5361329 47.4975,14.3021484 46.5975,13.3880859 Z M38.8125,9.9375 C39.45,9.9375 40.0575,10.1888672 40.5075,10.6535156 L44.6025,14.8125 L34.8,14.8125 L34.8,9.9375 L38.8125,9.9375 Z M6,31.875 C4.0125,31.875 2.4,30.2373048 2.4,28.21875 C2.4,26.2001952 4.0125,24.5625 6,24.5625 C7.9875,24.5625 9.6,26.2001952 9.6,28.21875 C9.6,30.2373048 7.9875,31.875 6,31.875 Z M15.6,31.875 C13.6125,31.875 12,30.2373048 12,28.21875 C12,26.2001952 13.6125,24.5625 15.6,24.5625 C17.5875,24.5625 19.2,26.2001952 19.2,28.21875 C19.2,30.2373048 17.5875,31.875 15.6,31.875 Z M32.4,24.5625 L20.37,24.5625 C19.275,23.0923828 17.5575,22.125 15.6,22.125 C13.6425,22.125 11.925,23.0923828 10.83,24.5625 L10.7775,24.5625 C10.7775,24.5625 10.7775,24.5701173 10.785,24.5701173 C9.6825,23.0923828 7.9575,22.125 6,22.125 C4.6425,22.125 3.405,22.5972656 2.4,23.3742186 L2.4,2.625 L32.4,2.625 L32.4,24.5625 Z M39.6,31.875 C37.6125,31.875 36,30.2373048 36,28.21875 C36,26.2001952 37.6125,24.5625 39.6,24.5625 C41.5875,24.5625 43.2,26.2001952 43.2,28.21875 C43.2,30.2373048 41.5875,31.875 39.6,31.875 Z M45.6,24.5625 L44.37,24.5625 C43.275,23.0923828 41.5575,22.125 39.6,22.125 C37.6425,22.125 35.925,23.0923828 34.83,24.5625 L34.8,24.5625 L34.8,17.25 L45.6,17.25 L45.6,24.5625 Z" id="path-1"></path>
    </defs>
    <g id="Artboard" stroke="none" stroke-width="1" fill="none" fill-rule="evenodd">
        <g id="truck-moving" transform="translate(0.000000, 7.000000)">
            <mask id="mask-2" fill="white">
                <use xlink:href="#path-1"></use>
            </mask>
            <g id="path-1"></g>
            <g id="grey/900(dark)" mask="url(#mask-2)">
                <g transform="translate(0.000000, -6.750000)" id="base">
                    <g>
                        <rect id="Rectangle-path" fill="#3B3E40" fill-rule="nonzero" x="0" y="0" width="48" height="48"></rect>
                    </g>
                </g>
            </g>
        </g>
    </g>
</svg>